<mxfile host="app.diagrams.net" modified="2022-12-14T13:41:20.127Z" agent="5.0 (Windows)" etag="1snBRyw7IyoWJoXYfcba" version="20.7.2" type="github">
  <diagram id="nNJ1jZ-xoB6Q-V_5DmPo" name="第 1 页">
    <mxGraphModel dx="1591" dy="717" grid="1" gridSize="10" guides="1" tooltips="1" connect="1" arrows="1" fold="1" page="1" pageScale="1" pageWidth="827" pageHeight="1169" math="0" shadow="0">
      <root>
        <mxCell id="0" />
        <mxCell id="1" parent="0" />
        <mxCell id="yu4EfbE-rzxSada8_k_1-1" value="检测报名单" style="ellipse;whiteSpace=wrap;html=1;aspect=fixed;" parent="1" vertex="1">
          <mxGeometry x="490" y="631" width="80" height="80" as="geometry" />
        </mxCell>
        <mxCell id="yu4EfbE-rzxSada8_k_1-2" value="编准考证号" style="ellipse;whiteSpace=wrap;html=1;aspect=fixed;" parent="1" vertex="1">
          <mxGeometry x="660" y="631" width="80" height="80" as="geometry" />
        </mxCell>
        <mxCell id="yu4EfbE-rzxSada8_k_1-21" style="edgeStyle=orthogonalEdgeStyle;rounded=0;orthogonalLoop=1;jettySize=auto;html=1;exitX=1;exitY=0.5;exitDx=0;exitDy=0;" parent="1" source="yu4EfbE-rzxSada8_k_1-3" edge="1">
          <mxGeometry relative="1" as="geometry">
            <mxPoint x="1010" y="625" as="targetPoint" />
          </mxGeometry>
        </mxCell>
        <mxCell id="yu4EfbE-rzxSada8_k_1-3" value="汇总考生" style="ellipse;whiteSpace=wrap;html=1;aspect=fixed;" parent="1" vertex="1">
          <mxGeometry x="831" y="585" width="80" height="80" as="geometry" />
        </mxCell>
        <mxCell id="yu4EfbE-rzxSada8_k_1-24" style="edgeStyle=orthogonalEdgeStyle;rounded=0;orthogonalLoop=1;jettySize=auto;html=1;exitX=1;exitY=0.5;exitDx=0;exitDy=0;entryX=0;entryY=0.5;entryDx=0;entryDy=0;" parent="1" source="yu4EfbE-rzxSada8_k_1-4" target="yu4EfbE-rzxSada8_k_1-5" edge="1">
          <mxGeometry relative="1" as="geometry" />
        </mxCell>
        <mxCell id="yu4EfbE-rzxSada8_k_1-30" style="edgeStyle=orthogonalEdgeStyle;rounded=0;orthogonalLoop=1;jettySize=auto;html=1;exitX=0.5;exitY=1;exitDx=0;exitDy=0;entryX=0.5;entryY=0;entryDx=0;entryDy=0;" parent="1" source="yu4EfbE-rzxSada8_k_1-4" target="yu4EfbE-rzxSada8_k_1-11" edge="1">
          <mxGeometry relative="1" as="geometry" />
        </mxCell>
        <mxCell id="yu4EfbE-rzxSada8_k_1-4" value="检查成绩清单" style="ellipse;whiteSpace=wrap;html=1;aspect=fixed;" parent="1" vertex="1">
          <mxGeometry x="490" y="170" width="80" height="80" as="geometry" />
        </mxCell>
        <mxCell id="yu4EfbE-rzxSada8_k_1-26" style="edgeStyle=orthogonalEdgeStyle;rounded=0;orthogonalLoop=1;jettySize=auto;html=1;exitX=1;exitY=0.5;exitDx=0;exitDy=0;entryX=0;entryY=0.5;entryDx=0;entryDy=0;" parent="1" source="yu4EfbE-rzxSada8_k_1-5" target="yu4EfbE-rzxSada8_k_1-6" edge="1">
          <mxGeometry relative="1" as="geometry" />
        </mxCell>
        <mxCell id="yu4EfbE-rzxSada8_k_1-5" value="分析试题难度" style="ellipse;whiteSpace=wrap;html=1;aspect=fixed;" parent="1" vertex="1">
          <mxGeometry x="660" y="170" width="80" height="80" as="geometry" />
        </mxCell>
        <mxCell id="yu4EfbE-rzxSada8_k_1-28" style="edgeStyle=orthogonalEdgeStyle;rounded=0;orthogonalLoop=1;jettySize=auto;html=1;exitX=1;exitY=0.5;exitDx=0;exitDy=0;" parent="1" source="yu4EfbE-rzxSada8_k_1-6" edge="1">
          <mxGeometry relative="1" as="geometry">
            <mxPoint x="1010" y="210" as="targetPoint" />
          </mxGeometry>
        </mxCell>
        <mxCell id="yu4EfbE-rzxSada8_k_1-6" value="打印难度分析表" style="ellipse;whiteSpace=wrap;html=1;aspect=fixed;" parent="1" vertex="1">
          <mxGeometry x="827" y="170" width="80" height="80" as="geometry" />
        </mxCell>
        <mxCell id="yu4EfbE-rzxSada8_k_1-39" style="edgeStyle=orthogonalEdgeStyle;rounded=0;orthogonalLoop=1;jettySize=auto;html=1;exitX=1;exitY=0.5;exitDx=0;exitDy=0;" parent="1" source="yu4EfbE-rzxSada8_k_1-7" edge="1">
          <mxGeometry relative="1" as="geometry">
            <mxPoint x="1010" y="369.7142857142858" as="targetPoint" />
          </mxGeometry>
        </mxCell>
        <mxCell id="yu4EfbE-rzxSada8_k_1-7" value="打印分类统计表" style="ellipse;whiteSpace=wrap;html=1;aspect=fixed;" parent="1" vertex="1">
          <mxGeometry x="827" y="330" width="80" height="80" as="geometry" />
        </mxCell>
        <mxCell id="yu4EfbE-rzxSada8_k_1-47" style="edgeStyle=orthogonalEdgeStyle;rounded=0;orthogonalLoop=1;jettySize=auto;html=1;exitX=1;exitY=0.5;exitDx=0;exitDy=0;" parent="1" source="yu4EfbE-rzxSada8_k_1-8" edge="1">
          <mxGeometry relative="1" as="geometry">
            <mxPoint x="1010" y="530" as="targetPoint" />
          </mxGeometry>
        </mxCell>
        <mxCell id="yu4EfbE-rzxSada8_k_1-8" value="打印通知单表" style="ellipse;whiteSpace=wrap;html=1;aspect=fixed;" parent="1" vertex="1">
          <mxGeometry x="827" y="490" width="80" height="80" as="geometry" />
        </mxCell>
        <mxCell id="yu4EfbE-rzxSada8_k_1-37" style="edgeStyle=orthogonalEdgeStyle;rounded=0;orthogonalLoop=1;jettySize=auto;html=1;exitX=1;exitY=0.5;exitDx=0;exitDy=0;entryX=0;entryY=0.5;entryDx=0;entryDy=0;" parent="1" source="yu4EfbE-rzxSada8_k_1-9" target="yu4EfbE-rzxSada8_k_1-7" edge="1">
          <mxGeometry relative="1" as="geometry" />
        </mxCell>
        <mxCell id="yu4EfbE-rzxSada8_k_1-9" value="分类统计成绩" style="ellipse;whiteSpace=wrap;html=1;aspect=fixed;" parent="1" vertex="1">
          <mxGeometry x="660" y="330" width="80" height="80" as="geometry" />
        </mxCell>
        <mxCell id="yu4EfbE-rzxSada8_k_1-45" style="edgeStyle=orthogonalEdgeStyle;rounded=0;orthogonalLoop=1;jettySize=auto;html=1;exitX=1;exitY=0.5;exitDx=0;exitDy=0;entryX=0;entryY=0.5;entryDx=0;entryDy=0;" parent="1" source="yu4EfbE-rzxSada8_k_1-10" target="yu4EfbE-rzxSada8_k_1-8" edge="1">
          <mxGeometry relative="1" as="geometry" />
        </mxCell>
        <mxCell id="yu4EfbE-rzxSada8_k_1-10" value="产生考生通知信息" style="ellipse;whiteSpace=wrap;html=1;aspect=fixed;" parent="1" vertex="1">
          <mxGeometry x="660" y="490" width="80" height="80" as="geometry" />
        </mxCell>
        <mxCell id="yu4EfbE-rzxSada8_k_1-41" style="edgeStyle=orthogonalEdgeStyle;rounded=0;orthogonalLoop=1;jettySize=auto;html=1;exitX=1;exitY=0.5;exitDx=0;exitDy=0;entryX=0;entryY=0.5;entryDx=0;entryDy=0;" parent="1" source="yu4EfbE-rzxSada8_k_1-11" target="yu4EfbE-rzxSada8_k_1-10" edge="1">
          <mxGeometry relative="1" as="geometry" />
        </mxCell>
        <mxCell id="yu4EfbE-rzxSada8_k_1-11" value="审定合格者" style="ellipse;whiteSpace=wrap;html=1;aspect=fixed;" parent="1" vertex="1">
          <mxGeometry x="490" y="490" width="80" height="80" as="geometry" />
        </mxCell>
        <mxCell id="yu4EfbE-rzxSada8_k_1-12" value="报名单" style="text;html=1;align=center;verticalAlign=middle;resizable=0;points=[];autosize=1;strokeColor=none;fillColor=none;" parent="1" vertex="1">
          <mxGeometry x="367" y="646" width="60" height="30" as="geometry" />
        </mxCell>
        <mxCell id="yu4EfbE-rzxSada8_k_1-13" value="" style="endArrow=classic;html=1;rounded=0;entryX=0;entryY=0.5;entryDx=0;entryDy=0;" parent="1" target="yu4EfbE-rzxSada8_k_1-4" edge="1">
          <mxGeometry width="50" height="50" relative="1" as="geometry">
            <mxPoint x="430" y="140" as="sourcePoint" />
            <mxPoint x="454" y="50" as="targetPoint" />
          </mxGeometry>
        </mxCell>
        <mxCell id="yu4EfbE-rzxSada8_k_1-14" value="" style="endArrow=classic;html=1;rounded=0;exitX=1;exitY=0.5;exitDx=0;exitDy=0;entryX=0;entryY=0.5;entryDx=0;entryDy=0;" parent="1" source="yu4EfbE-rzxSada8_k_1-2" target="yu4EfbE-rzxSada8_k_1-3" edge="1">
          <mxGeometry width="50" height="50" relative="1" as="geometry">
            <mxPoint x="697" y="761" as="sourcePoint" />
            <mxPoint x="747" y="711" as="targetPoint" />
          </mxGeometry>
        </mxCell>
        <mxCell id="yu4EfbE-rzxSada8_k_1-16" value="" style="endArrow=classic;html=1;rounded=0;entryX=0;entryY=0.5;entryDx=0;entryDy=0;" parent="1" target="yu4EfbE-rzxSada8_k_1-1" edge="1">
          <mxGeometry width="50" height="50" relative="1" as="geometry">
            <mxPoint x="357" y="671" as="sourcePoint" />
            <mxPoint x="407" y="701" as="targetPoint" />
          </mxGeometry>
        </mxCell>
        <mxCell id="yu4EfbE-rzxSada8_k_1-17" value="" style="endArrow=classic;html=1;rounded=0;exitX=1;exitY=0.5;exitDx=0;exitDy=0;entryX=0;entryY=0.5;entryDx=0;entryDy=0;" parent="1" source="yu4EfbE-rzxSada8_k_1-1" target="yu4EfbE-rzxSada8_k_1-2" edge="1">
          <mxGeometry width="50" height="50" relative="1" as="geometry">
            <mxPoint x="567" y="721" as="sourcePoint" />
            <mxPoint x="617" y="671" as="targetPoint" />
          </mxGeometry>
        </mxCell>
        <mxCell id="yu4EfbE-rzxSada8_k_1-18" value="合格报名单" style="text;html=1;align=center;verticalAlign=middle;resizable=0;points=[];autosize=1;strokeColor=none;fillColor=none;" parent="1" vertex="1">
          <mxGeometry x="564" y="645" width="80" height="30" as="geometry" />
        </mxCell>
        <mxCell id="yu4EfbE-rzxSada8_k_1-20" value="&lt;div&gt;正式报名单&lt;/div&gt;" style="text;html=1;align=center;verticalAlign=middle;resizable=0;points=[];autosize=1;strokeColor=none;fillColor=none;" parent="1" vertex="1">
          <mxGeometry x="738" y="618" width="80" height="30" as="geometry" />
        </mxCell>
        <mxCell id="yu4EfbE-rzxSada8_k_1-22" value="&lt;div&gt;考生名单&lt;/div&gt;" style="text;html=1;align=center;verticalAlign=middle;resizable=0;points=[];autosize=1;strokeColor=none;fillColor=none;" parent="1" vertex="1">
          <mxGeometry x="924" y="601" width="70" height="30" as="geometry" />
        </mxCell>
        <mxCell id="yu4EfbE-rzxSada8_k_1-23" value="成绩清单" style="text;html=1;align=center;verticalAlign=middle;resizable=0;points=[];autosize=1;strokeColor=none;fillColor=none;" parent="1" vertex="1">
          <mxGeometry x="435" y="135" width="70" height="30" as="geometry" />
        </mxCell>
        <mxCell id="yu4EfbE-rzxSada8_k_1-25" value="试题得分清单" style="text;html=1;align=center;verticalAlign=middle;resizable=0;points=[];autosize=1;strokeColor=none;fillColor=none;" parent="1" vertex="1">
          <mxGeometry x="564" y="184" width="100" height="30" as="geometry" />
        </mxCell>
        <mxCell id="yu4EfbE-rzxSada8_k_1-27" value="难度分析结果" style="text;html=1;align=center;verticalAlign=middle;resizable=0;points=[];autosize=1;strokeColor=none;fillColor=none;" parent="1" vertex="1">
          <mxGeometry x="731" y="185" width="100" height="30" as="geometry" />
        </mxCell>
        <mxCell id="yu4EfbE-rzxSada8_k_1-29" value="难度分析表" style="text;html=1;align=center;verticalAlign=middle;resizable=0;points=[];autosize=1;strokeColor=none;fillColor=none;" parent="1" vertex="1">
          <mxGeometry x="910" y="183" width="80" height="30" as="geometry" />
        </mxCell>
        <mxCell id="yu4EfbE-rzxSada8_k_1-31" value="&lt;div&gt;正&lt;/div&gt;&lt;div&gt;确&lt;/div&gt;&lt;div&gt;成&lt;/div&gt;&lt;div&gt;绩&lt;/div&gt;&lt;div&gt;清&lt;/div&gt;&lt;div&gt;单&lt;/div&gt;" style="text;html=1;align=center;verticalAlign=middle;resizable=0;points=[];autosize=1;strokeColor=none;fillColor=none;" parent="1" vertex="1">
          <mxGeometry x="522" y="314" width="40" height="100" as="geometry" />
        </mxCell>
        <mxCell id="yu4EfbE-rzxSada8_k_1-35" value="" style="endArrow=classic;html=1;rounded=0;exitX=1;exitY=1;exitDx=0;exitDy=0;" parent="1" source="yu4EfbE-rzxSada8_k_1-4" target="yu4EfbE-rzxSada8_k_1-9" edge="1">
          <mxGeometry width="50" height="50" relative="1" as="geometry">
            <mxPoint x="610" y="450" as="sourcePoint" />
            <mxPoint x="660" y="400" as="targetPoint" />
          </mxGeometry>
        </mxCell>
        <mxCell id="yu4EfbE-rzxSada8_k_1-36" value="试题得分清单" style="text;html=1;align=center;verticalAlign=middle;resizable=0;points=[];autosize=1;strokeColor=none;fillColor=none;" parent="1" vertex="1">
          <mxGeometry x="602" y="267" width="100" height="30" as="geometry" />
        </mxCell>
        <mxCell id="yu4EfbE-rzxSada8_k_1-38" value="分类统计结果" style="text;html=1;align=center;verticalAlign=middle;resizable=0;points=[];autosize=1;strokeColor=none;fillColor=none;" parent="1" vertex="1">
          <mxGeometry x="732" y="345" width="100" height="30" as="geometry" />
        </mxCell>
        <mxCell id="yu4EfbE-rzxSada8_k_1-40" value="分类统计表" style="text;html=1;align=center;verticalAlign=middle;resizable=0;points=[];autosize=1;strokeColor=none;fillColor=none;" parent="1" vertex="1">
          <mxGeometry x="912" y="344" width="80" height="30" as="geometry" />
        </mxCell>
        <mxCell id="yu4EfbE-rzxSada8_k_1-42" value="正式成绩清单" style="text;html=1;align=center;verticalAlign=middle;resizable=0;points=[];autosize=1;strokeColor=none;fillColor=none;" parent="1" vertex="1">
          <mxGeometry x="562" y="503" width="100" height="30" as="geometry" />
        </mxCell>
        <mxCell id="yu4EfbE-rzxSada8_k_1-43" value="" style="endArrow=classic;html=1;rounded=0;entryX=0;entryY=1;entryDx=0;entryDy=0;" parent="1" target="yu4EfbE-rzxSada8_k_1-10" edge="1">
          <mxGeometry width="50" height="50" relative="1" as="geometry">
            <mxPoint x="590" y="610" as="sourcePoint" />
            <mxPoint x="650" y="580" as="targetPoint" />
          </mxGeometry>
        </mxCell>
        <mxCell id="yu4EfbE-rzxSada8_k_1-44" value="考生名册" style="text;html=1;align=center;verticalAlign=middle;resizable=0;points=[];autosize=1;strokeColor=none;fillColor=none;" parent="1" vertex="1">
          <mxGeometry x="616" y="582" width="70" height="30" as="geometry" />
        </mxCell>
        <mxCell id="yu4EfbE-rzxSada8_k_1-46" value="考生通知信息" style="text;html=1;align=center;verticalAlign=middle;resizable=0;points=[];autosize=1;strokeColor=none;fillColor=none;" parent="1" vertex="1">
          <mxGeometry x="731" y="505" width="100" height="30" as="geometry" />
        </mxCell>
        <mxCell id="yu4EfbE-rzxSada8_k_1-48" value="考生通知单" style="text;html=1;align=center;verticalAlign=middle;resizable=0;points=[];autosize=1;strokeColor=none;fillColor=none;" parent="1" vertex="1">
          <mxGeometry x="919" y="505" width="80" height="30" as="geometry" />
        </mxCell>
        <mxCell id="yu4EfbE-rzxSada8_k_1-49" value="" style="endArrow=classic;html=1;rounded=0;entryX=0;entryY=1;entryDx=0;entryDy=0;" parent="1" edge="1">
          <mxGeometry width="50" height="50" relative="1" as="geometry">
            <mxPoint x="590" y="451.72" as="sourcePoint" />
            <mxPoint x="671.7157287525379" y="400.00427124746216" as="targetPoint" />
          </mxGeometry>
        </mxCell>
        <mxCell id="yu4EfbE-rzxSada8_k_1-50" value="考生名册" style="text;html=1;align=center;verticalAlign=middle;resizable=0;points=[];autosize=1;strokeColor=none;fillColor=none;" parent="1" vertex="1">
          <mxGeometry x="616" y="423.72" width="70" height="30" as="geometry" />
        </mxCell>
        <mxCell id="d8HS5hIyM-DUeiwJt4Vd-2" value="" style="curved=1;endArrow=classic;html=1;rounded=0;fillColor=#FF0000;strokeColor=#FF0000;" parent="1" edge="1">
          <mxGeometry width="50" height="50" relative="1" as="geometry">
            <mxPoint x="626" y="448" as="sourcePoint" />
            <mxPoint x="546" y="98" as="targetPoint" />
            <Array as="points">
              <mxPoint x="626" y="198" />
              <mxPoint x="586" y="118" />
            </Array>
          </mxGeometry>
        </mxCell>
        <mxCell id="d8HS5hIyM-DUeiwJt4Vd-3" value="" style="curved=1;endArrow=classic;html=1;rounded=0;strokeColor=#FF0000;" parent="1" edge="1">
          <mxGeometry width="50" height="50" relative="1" as="geometry">
            <mxPoint x="626" y="447.5" as="sourcePoint" />
            <mxPoint x="560" y="780" as="targetPoint" />
            <Array as="points">
              <mxPoint x="626" y="688" />
            </Array>
          </mxGeometry>
        </mxCell>
        <mxCell id="d8HS5hIyM-DUeiwJt4Vd-9" value="" style="curved=1;endArrow=classic;html=1;rounded=0;fillColor=#FF0000;strokeColor=#FF0000;" parent="1" edge="1">
          <mxGeometry width="50" height="50" relative="1" as="geometry">
            <mxPoint x="783" y="458" as="sourcePoint" />
            <mxPoint x="850" y="98" as="targetPoint" />
            <Array as="points">
              <mxPoint x="780" y="228" />
              <mxPoint x="790" y="138" />
            </Array>
          </mxGeometry>
        </mxCell>
        <mxCell id="d8HS5hIyM-DUeiwJt4Vd-11" value="" style="curved=1;endArrow=classic;html=1;rounded=0;strokeColor=#FF0000;" parent="1" edge="1">
          <mxGeometry width="50" height="50" relative="1" as="geometry">
            <mxPoint x="783" y="446.5" as="sourcePoint" />
            <mxPoint x="840" y="777" as="targetPoint" />
            <Array as="points">
              <mxPoint x="783" y="687" />
            </Array>
          </mxGeometry>
        </mxCell>
        <mxCell id="EXGAPs-U9z4yzb6F5d6g-1" value="" style="endArrow=classic;html=1;rounded=0;entryX=0;entryY=0.5;entryDx=0;entryDy=0;" edge="1" parent="1" target="yu4EfbE-rzxSada8_k_1-11">
          <mxGeometry width="50" height="50" relative="1" as="geometry">
            <mxPoint x="360" y="530" as="sourcePoint" />
            <mxPoint x="870" y="410" as="targetPoint" />
          </mxGeometry>
        </mxCell>
        <mxCell id="EXGAPs-U9z4yzb6F5d6g-2" value="合格标准" style="text;html=1;align=center;verticalAlign=middle;resizable=0;points=[];autosize=1;strokeColor=none;fillColor=none;" vertex="1" parent="1">
          <mxGeometry x="362" y="504" width="70" height="30" as="geometry" />
        </mxCell>
        <mxCell id="EXGAPs-U9z4yzb6F5d6g-9" style="edgeStyle=orthogonalEdgeStyle;rounded=0;orthogonalLoop=1;jettySize=auto;html=1;exitX=1;exitY=0.5;exitDx=0;exitDy=0;" edge="1" parent="1" source="EXGAPs-U9z4yzb6F5d6g-5">
          <mxGeometry relative="1" as="geometry">
            <mxPoint x="1010" y="715.3076923076922" as="targetPoint" />
          </mxGeometry>
        </mxCell>
        <mxCell id="EXGAPs-U9z4yzb6F5d6g-5" value="打印准考证" style="ellipse;whiteSpace=wrap;html=1;aspect=fixed;" vertex="1" parent="1">
          <mxGeometry x="832" y="676" width="80" height="80" as="geometry" />
        </mxCell>
        <mxCell id="EXGAPs-U9z4yzb6F5d6g-8" value="" style="endArrow=classic;html=1;rounded=0;exitX=1;exitY=0.5;exitDx=0;exitDy=0;entryX=0;entryY=0.5;entryDx=0;entryDy=0;" edge="1" parent="1" source="yu4EfbE-rzxSada8_k_1-2" target="EXGAPs-U9z4yzb6F5d6g-5">
          <mxGeometry width="50" height="50" relative="1" as="geometry">
            <mxPoint x="740" y="780" as="sourcePoint" />
            <mxPoint x="790" y="730" as="targetPoint" />
          </mxGeometry>
        </mxCell>
        <mxCell id="EXGAPs-U9z4yzb6F5d6g-10" value="准考证" style="text;html=1;align=center;verticalAlign=middle;resizable=0;points=[];autosize=1;strokeColor=none;fillColor=none;" vertex="1" parent="1">
          <mxGeometry x="934" y="690" width="60" height="30" as="geometry" />
        </mxCell>
      </root>
    </mxGraphModel>
  </diagram>
</mxfile>
